<svg id="Capa_1" enable-background="new 0 0 497 497" height="512" viewBox="0 0 497 497" width="512" xmlns="http://www.w3.org/2000/svg"><g><path d="m453.066 43.934-409.132 409.132c58.579 58.579 153.553 58.579 212.132 0l197-197c58.579-58.579 58.579-153.553 0-212.132z" fill="#a1ecff"/><path d="m234.853 431.853 13.029-55.455 53.624-11.198 63.694-63.694 11.198-53.624 55.455-13.029c58.579-58.579 68.076-144.056 21.213-190.919-58.579-58.579-153.553-58.579-212.132 0l-197 197c-58.579 58.579-58.579 153.553 0 212.132 46.863 46.863 132.34 37.366 190.919-21.213z" fill="#d9f5ff"/><path d="m462.546 117.714c-1.362-4.905-4.007-9.266-7.542-12.8l-142.41 176.07 2.932 8.795c7.052 21.157 33.904 27.496 49.674 11.726l66.653-66.653c31.67-31.669 41.898-76.781 30.693-117.138z" fill="#68d461"/><path d="m337.431 286.848 73.208-73.208c31.67-31.67 48.819-69.86 47.845-99.987-.118-3.647-1.374-6.598-3.48-8.738-2.206-2.205-4.756-4.089-7.564-5.576-10.296-5.452-19.959-12.504-28.617-21.162s-15.71-18.321-21.162-28.617c-3.869-7.307-10.409-12.894-18.376-15.106-40.357-11.205-85.469-.976-117.139 30.694l-66.652 66.652c-15.77 15.77-9.431 42.621 11.726 49.674l38.538 12.846c26.874 8.958 47.963 30.047 56.921 56.921l9.915 29.744c3.527 10.578 16.953 13.747 24.837 5.863z" fill="#94e368"/><path d="m117.714 462.546c-4.905-1.362-9.266-4.007-12.8-7.542l176.07-142.41 8.795 2.932c21.157 7.052 27.496 33.904 11.726 49.674l-66.653 66.653c-31.669 31.67-76.781 41.898-117.138 30.693z" fill="#68d461"/><path d="m286.848 337.431-73.208 73.208c-31.67 31.67-69.86 48.819-99.987 47.845-3.647-.118-6.598-1.374-8.738-3.48-2.205-2.206-4.089-4.756-5.576-7.564-5.452-10.296-12.504-19.959-21.162-28.617s-18.321-15.71-28.617-21.162c-7.307-3.869-12.894-10.409-15.106-18.376-11.205-40.357-.976-85.469 30.694-117.139l66.653-66.653c15.77-15.77 42.621-9.431 49.674 11.726l12.846 38.538c8.958 26.874 30.047 47.963 56.921 56.921l29.744 9.915c10.577 3.528 13.746 16.954 5.862 24.838z" fill="#94e368"/><circle cx="99.389" cy="270.332" fill="#68d461" r="7.5"/><circle cx="259.079" cy="365.2" fill="#3ac259" r="7.5"/><circle cx="280.292" cy="343.987" fill="#3ac259" r="7.5"/><circle cx="216.707" cy="153.013" fill="#68d461" r="7.5"/><circle cx="237.921" cy="131.8" fill="#68d461" r="7.5"/><circle cx="141.816" cy="355.184" fill="#2ca855" r="60"/><circle cx="141.816" cy="355.184" fill="#3ac259" r="30"/><circle cx="355.184" cy="141.816" fill="#2ca855" r="60"/><circle cx="355.184" cy="141.816" fill="#3ac259" r="30"/><circle cx="355.184" cy="247.882" fill="#b1f78b" r="15"/></g></svg>