<svg id="Layer_1" enable-background="new 0 0 500 500" viewBox="0 0 500 500" xmlns="http://www.w3.org/2000/svg" xmlns:xlink="http://www.w3.org/1999/xlink"><linearGradient id="SVGID_1_" gradientUnits="userSpaceOnUse" x1="235.174" x2="239.59" y1="317.21" y2="297.988"><stop offset="0" stop-color="#ffc863"/><stop offset=".7824" stop-color="#ff972f"/><stop offset="1" stop-color="#ff8921"/></linearGradient><linearGradient id="lg1"><stop offset="0" stop-color="#ffc863"/><stop offset="1" stop-color="#ff8921"/></linearGradient><linearGradient id="SVGID_2_" gradientUnits="userSpaceOnUse" x1="374.403" x2="365.571" xlink:href="#lg1" y1="326.29" y2="295.12"/><linearGradient id="SVGID_3_" gradientUnits="userSpaceOnUse" x1="322.624" x2="322.884" xlink:href="#lg1" y1="184.21" y2="219.017"/><linearGradient id="SVGID_4_" gradientUnits="userSpaceOnUse" x1="250.282" x2="249.502" y1="196.466" y2="303.226"><stop offset="0" stop-color="#ffc863"/><stop offset=".6865" stop-color="#ff8208"/><stop offset="1" stop-color="#ff8921"/></linearGradient><linearGradient id="SVGID_5_" gradientUnits="userSpaceOnUse" x1="71.679" x2="-104.954" y1="252.994" y2="291.438"><stop offset="0" stop-color="#ffedcc"/><stop offset="1" stop-color="#ff8921"/></linearGradient><linearGradient id="SVGID_6_" gradientUnits="userSpaceOnUse" x1="32.561" x2="472.365" xlink:href="#lg1" y1="287.325" y2="287.325"/><g><path d="m291.116 306.768c-9.091 12.872-28.054 17.548-51.691 14.69-23.638-2.857-41.821-5.838-46.236-7.854-4.416-2.017-5.715-22.797-3.636-30.85 2.077-8.052 101.563 24.014 101.563 24.014z" fill="url(#SVGID_1_)"/><path d="m241.764 318.211c-23.638-2.858-41.821-5.838-46.236-7.854-4.071-1.859-5.485-19.64-4.055-28.721-1.073.192-1.771.543-1.919 1.118-2.078 8.053-.779 28.833 3.636 30.849 4.416 2.017 22.598 4.998 46.236 7.855 23.637 2.857 42.599-1.818 51.691-14.69 0 0-.147-.046-.378-.121-9.84 10.43-27.417 14.17-48.975 11.564z" fill="#fff" opacity=".2"/><path d="m409.305 290.287c-11.17 22.079-31.43 38.704-51.951 37.924-20.521-.779-27.765 1.107-29.612-7.533s-5.974-27.793-6.493-28.573c-.52-.778 88.056-1.818 88.056-1.818z" fill="url(#SVGID_2_)"/><path d="m402.75 290.368c-11.606 18.842-29.878 32.313-48.384 31.609-15.207-.577-23.1.288-26.931-2.73.106.497.211.986.307 1.432 1.847 8.64 9.091 6.754 29.611 7.533 20.521.779 40.781-15.845 51.951-37.924.001-.001-2.48.028-6.554.08z" fill="#ffe4b9" opacity=".2"/><path d="m398.135 211.582c-24.936-29.353-61.821-44.159-100.265-38.704-38.443 5.454-43.119 10.13-49.353 15.325-6.235 5.196 14.806 9.352 14.286 20.521-.52 11.17 82.602 12.988 108.318 14.547s27.014-11.689 27.014-11.689z" fill="url(#SVGID_3_)"/><g fill="#fffce7" opacity=".3"><path d="m300.509 180.151c36.562-5.187 71.691 7.979 96.495 34.527.994-1.766 1.131-3.097 1.131-3.097-24.936-29.352-61.821-44.158-100.265-38.703-38.443 5.454-43.119 10.13-49.353 15.325-2.686 2.238-.302 4.285 3.229 6.78 5.975-4.998 11.543-9.55 48.763-14.832z"/><path d="m262.905 209.265c.137.671.577 1.307 1.3 1.909-.371-.664-.801-1.302-1.3-1.909z"/></g><g fill="#ff5600"><path d="m247.38 190.061c-.297 4.448 15.88 8.848 15.424 18.663-.519 11.169 82.602 12.988 108.318 14.546 25.716 1.559 27.014-11.689 27.014-11.689-3.345-3.937-6.92-7.59-10.67-10.99-32.044-7.563-69.24-12.856-104.767-12.729-12.073.043-23.882.85-35.319 2.199z" opacity=".1"/><path d="m326.749 316.05c25.882-2.26 51.823-6.853 74.656-13.066 2.956-3.944 5.625-8.198 7.9-12.697 0 0-88.576 1.04-88.056 1.819.439.66 3.461 14.474 5.5 23.944z" opacity=".3"/><path d="m189.553 282.754c-1.094 4.238-1.243 11.989-.504 18.687 27.075 8.348 58.619 14.391 89.255 15.693 5.283-2.517 9.672-5.919 12.813-10.366-.001 0-99.487-32.066-101.564-24.014z" opacity=".4"/></g><path d="m472.609 243.657c-10.781-18.776-105.16-49.261-189.911-48.959-52.777.188-100.882 14.437-132.042 28.912-4.519 2.1-9.745 2.137-14.214-.069-39.347-19.431-75.195-14.065-102.4-8.465-32.459 6.681 32.601-1.173 36.73 34.88 4.128 36.052-29.743 41.392-37.656 53.007s70.971-.951 100.645-19.412c.029-.018.058-.036.087-.054 4.986-3.103 11.156-3.43 16.43-.849 33.9 16.583 87.585 30.413 137.303 30.937 91.575.963 205.391-34.465 185.028-69.928z" fill="url(#SVGID_4_)"/><g fill="#ffea75" opacity=".1"><path d="m53.131 226.858c23.451-2.993 51.07-2.412 80.672 12.207 4.469 2.206 9.695 2.169 14.214.068 31.16-14.475 79.265-28.723 132.042-28.911 84.751-.303 179.129 30.183 189.911 48.959.633 1.102 1.134 2.203 1.511 3.304 4.057-6.138 4.773-12.48 1.128-18.828-10.781-18.776-105.16-49.261-189.911-48.959-52.777.188-100.882 14.436-132.041 28.912-4.52 2.1-9.746 2.137-14.215-.069-39.347-19.431-75.195-14.065-102.4-8.465-22.013 4.531.821 2.392 19.089 11.782z"/><path d="m68.384 270.154c-7.605 18.546-29.153 23.834-35.268 32.809-2.305 3.383 2.785 4.703 11.85 4.434 11.184-7.148 23.909-16.714 23.418-37.243z"/></g><path d="m27.35 216.622c-14.089 4.048 39.681.665 43.422 33.334 4.128 36.052-29.743 41.392-37.656 53.007-1.279 1.878-.263 3.115 2.421 3.806 34.793-5.971 59.585-26.9 58.685-55.444-.783-24.882-40.862-32.324-66.872-34.703z" fill="url(#SVGID_5_)" opacity=".2"/><path d="m472.365 261.046c-22.785 18.026-69.616 32.948-158.963 33.065-142.657.187-162.294-39.15-168.007-29.799-4.455 7.289-47.055 27.438-87.497 20.04-9.233 8.065-20.608 12.484-24.782 18.611-7.913 11.615 70.971-.951 100.645-19.412.029-.018.058-.036.087-.054 4.986-3.103 11.156-3.43 16.43-.849 33.9 16.583 87.585 30.413 137.303 30.937 76.461.804 168.362-23.765 184.784-52.539z" fill="url(#SVGID_6_)" opacity=".3"/><g fill="#ffd6c2" opacity=".3"><path d="m70.772 249.984c.151 1.321.15 2.517.202 3.758.139-2.568.137-5.254-.202-8.217-2.452-21.41-26.393-27.336-38.637-30.017-27.713 5.951 34.598-.799 38.637 34.476z"/><path d="m287.581 309.155c-49.718-.523-103.403-14.355-137.303-30.938-5.275-2.581-11.445-2.254-16.43.849-.029.019-.058.036-.087.055-25.872 16.094-89.131 27.702-99.679 22.718-.327.383-.696.756-.966 1.152-7.913 11.615 70.971-.951 100.645-19.412l.087-.054c4.986-3.103 11.156-3.43 16.43-.849 33.9 16.583 87.585 30.413 137.303 30.937 86.251.908 192.187-30.468 187.205-63.75-4.49 31.569-104.819 60.159-187.205 59.292z"/></g><path d="m427.066 240.463c0 5.192-4.208 9.401-9.4 9.401s-9.4-4.209-9.4-9.401c0-5.191 4.208-9.4 9.4-9.4s9.4 4.208 9.4 9.4z" fill="#521b00"/><path d="m424.111 237.167c0 1.399-1.134 2.533-2.533 2.533s-2.533-1.133-2.533-2.533c0-1.399 1.133-2.533 2.533-2.533 1.399.001 2.533 1.135 2.533 2.533z" fill="#ffe0d1"/></g></svg>
