<svg id="Frog" enable-background="new 0 0 64 64" viewBox="0 0 64 64" xmlns="http://www.w3.org/2000/svg"><g><g><path d="m63.7784 20.52973c-.81441-3.90919-7.00397-6.39316-9.64681-6.54227-.7218-2.97294-3.38298-5.18815-6.57785-5.18815-2.97749 0-5.47962 1.92961-6.39441 4.59688-3.88667 2.27343-7.29383 4.41506-19.08671 5.27931-9.89746.72536-18.87376 3.54637-21.33685 13.6923-3.38941 13.96179 5.38069 20.705 17.08967 21.70341 9.23813.7878 14.20335-.08196 21.21108-4.66997 4.24208-2.77741 7.87949-7.68972 9.86256-10.49663 2.90628-4.11365 6.40527-6.21439 9.22261-8.30793 2.16473-1.60853 6.92759-3.96674 5.65671-10.06695z" fill="#75d64c"/><path d="m29.49139 53.70905c-3.3436.72691-6.94152.76317-11.66606.36345-11.70244-.99941-20.4793-7.74107-17.08124-21.69676 1.79896-7.45038 7.105-10.93927 13.70126-12.55656-10.16634 15.88686-3.29036 30.57621 15.04604 33.88987z" opacity=".09"/><circle cx="47.554" cy="13.966" fill="#3b3b44" r="1.928"/><path d="m63.99903 22.36324c.07264 4.76092-3.94318 6.79612-5.86935 8.23162-2.81667 2.08977-6.32375 4.19761-9.23114 8.30438-1.98074 2.81667-5.61504 7.72288-9.8671 10.50317-6.99609 4.57925-11.97506 5.45145-21.20609 4.67009-4.68827-.39983-8.90407-1.72631-12.06589-4.0704 5.41507.2907 9.50365-.38164 11.93868-.94495 10.21237-2.25325 17.33556-7.8501 21.29693-10.97554 7.52302-5.9603 8.68602-9.74 16.17267-13.33792 2.126-.9994 6.03292-1.92617 8.83129-2.38045z" fill="#dcf7a9"/></g><g><path d="m53.77324 55.20068h-8.41341c-1.36441 0-2.63877-.69574-3.36013-1.85375-2.69666-4.32854-5.37636-10.39159-7.01017-16.26023-.11346-.40753 1.94268-4.12875 4.71832-5.49513 2.16507-1.06581 5.35018-1.25938 6.29833.00001.12459 11.18563 3.50512 16.53199 3.50512 16.53199s4.15646.45723 6.2347 3.32858c1.12961 1.56077-.04603 3.74853-1.97276 3.74853z" fill="#75d64c"/><path d="m49.33463 55.19912h-3.97956c-1.36286 0-2.63489-.69053-3.36168-1.85353-2.18732-3.51735-4.37456-8.18852-5.98508-12.96766 1.3692-.40921 3.80355.82418 4.71099 2.78521 1.33943 2.8946 1.85614 4.00072 2.81861 5.73042 1.00042 1.7978 2.45322 4.14315 5.79672 6.30556z" opacity=".09"/></g><g><path d="m29.76235 55.20068h-23.08258c-1.06607 0-2.12759-.28482-2.99878-.8992-1.69448-1.19517-2.68646-3.36628-2.00991-7.30597 1.38759-8.12854 19.99994-21.68251 25.74142-12.11614 3.62542 6.05801-3.52117 12.84925-3.95483 13.30931 4.40013 0 6.86322 1.14964 8.24216 2.56335 1.61407 1.65494.37432 4.44865-1.93748 4.44865z" fill="#65bf41"/><path d="m13.77301 55.19912h-7.08681c-1.07217 0-2.12614-.29081-2.99834-.89038-1.70812-1.19938-2.68934-3.37998-2.01701-7.30497.76318-4.54287 6.90515-10.77568 13.19252-13.71945-1.45381 2.14422-3.03849 4.89826-4.27037 8.28619-3.18732 8.76583 1.12663 12.30202 3.18001 13.62861z" opacity=".09"/><path d="m26.14387 48.36631c-.30858.36007-.8641.83321-1.70754 1.36813-1.83104 1.17268-4.77298 1.48127-7.18006 1.48127-1.74873 0-3.2197-.16462-3.82657-.29829-.4938-.1029-.80238-.59664-.68918-1.09044.10284-.49373.59657-.80232 1.09037-.68918 1.39896.30859 7.1491.61723 9.6282-.94634.98748 0 1.88246.06171 2.68478.17485z" fill="#55a837"/></g></g></svg>