<svg id="Capa_1" enable-background="new 0 0 512 512" height="512" viewBox="0 0 512 512" width="512" xmlns="http://www.w3.org/2000/svg"><g><g fill="#5e3373"><path d="m482 30.671v-30.671h-52.5l-20 15 20 15h13.084l-13.084 14.829-20 37.842 20 7.5z"/><path d="m482 135v-30h-52.5l-20 15 20 15z"/><path d="m302 105h5.958l-5.958 6.951-20 38.598 20 7.5 45-52.5v-30.549h-45l-20 15z"/><path d="m347 195v-30h-45l-20 15 20 15z"/></g><path d="m454.735 326.423-8.77 2.886c-64.437 21.205-137.892 3.093-187.13-46.145-2.065-2.065-4.069-4.175-6.024-6.323l-20 125.424 20 109.683c1.418.026 2.835.052 4.257.052 60.651 0 117.674-23.619 160.562-66.507 25.403-25.403 43.944-55.485 55.107-89.412l2.886-8.768z" fill="#ffc34d"/><path d="m429.5 90.171v-45.342l-52.5 59.5v30.671h52.5v-30h-13.084z" fill="#6d4d8c"/><path d="m377 0h52.5v30h-52.5z" fill="#6d4d8c"/><path d="m257 164.451v30.549h45v-30h-5.958l5.958-6.951v-46.098z" fill="#6d4d8c"/><path d="m257 75h45v30h-45z" fill="#6d4d8c"/><path d="m212.69 96.034 2.886-8.768-20.889-20.89-8.769 2.886c-33.928 11.165-64.011 29.706-89.412 55.108-42.887 42.887-66.506 99.909-66.506 160.561s23.619 117.674 66.507 160.562c41.882 41.883 97.247 65.376 156.305 66.456v-235.107c-44.659-49.063-60.438-119.07-40.122-180.808z" fill="#ffe14d"/></g></svg>