<svg clip-rule="evenodd" fill-rule="evenodd" height="512" image-rendering="optimizeQuality" shape-rendering="geometricPrecision" text-rendering="geometricPrecision" viewBox="0 0 4335 4335" width="512" xmlns="http://www.w3.org/2000/svg"><g id="Layer_x0020_1" fill-rule="nonzero"><path d="m1545 75c-8-32 11-64 42-73 32-8 64 10 73 42l274 1023c8 31-10 64-42 72-32 9-64-10-73-42z" fill="#fb8c21"/><path d="m1025 307c-16-28-7-64 22-81 28-16 64-7 80 22l530 917c16 28 7 64-22 81-28 16-64 6-80-22z" fill="#fb8c21"/><path d="m248 1127c-29-16-38-52-22-80 17-29 53-38 81-22l917 530c28 16 38 52 22 80-17 29-53 38-81 22z" fill="#fb8c21"/><path d="m44 1660c-32-9-50-41-42-73 9-31 41-50 73-42l1022 274c32 9 51 41 42 73-8 32-41 50-72 42z" fill="#fb8c21"/><path d="m75 2790c-32 8-64-11-73-42-8-32 10-64 42-73l1023-274c31-8 64 10 72 42 9 32-10 64-42 72z" fill="#fb8c21"/><path d="m307 3310c-28 16-64 7-81-22-16-28-7-64 22-80l917-530c28-16 64-7 81 22 16 28 6 64-22 80z" fill="#fb8c21"/><path d="m2167 1314c236 0 450 95 604 250 155 154 250 368 250 603 0 236-95 450-250 604-154 155-368 250-604 250-235 0-449-95-603-250-155-154-250-368-250-604 0-235 95-449 250-603 154-155 368-250 603-250z" fill="#ffa721"/><g fill="#fb8c21"><path d="m2108 338c0-33 27-59 59-59 33 0 60 26 60 59v706c0 33-27 59-60 59-32 0-59-26-59-59z"/><path d="m3419 832c23-23 61-23 84 0s23 61 0 84l-499 499c-23 23-61 23-84 0s-23-61 0-84z"/><path d="m3997 2108c33 0 59 27 59 59 0 33-26 60-59 60h-706c-33 0-59-27-59-60 0-32 26-59 59-59z"/><path d="m3503 3419c23 23 23 61 0 84s-61 23-84 0l-499-499c-23-23-23-61 0-84s61-23 84 0z"/><path d="m2227 3997c0 33-27 59-60 59-32 0-59-26-59-59v-706c0-33 27-59 59-59 33 0 60 26 60 59z"/><path d="m916 3503c-23 23-61 23-84 0s-23-61 0-84l499-499c23-23 61-23 84 0s23 61 0 84z"/><path d="m338 2227c-33 0-59-27-59-60 0-32 26-59 59-59h706c33 0 59 27 59 59 0 33-26 60-59 60z"/><path d="m832 916c-23-23-23-61 0-84s61-23 84 0l499 499c23 23 23 61 0 84s-61 23-84 0z"/><path d="m2675 44c9-32 41-50 73-42 31 9 50 41 42 73l-275 1022c-8 32-40 51-72 42-32-8-50-41-42-72z"/><path d="m3208 248c16-29 52-38 80-22 29 17 38 53 22 81l-530 917c-16 28-52 38-80 22-29-17-38-53-22-81z"/><path d="m4028 1025c28-16 64-7 81 22 16 28 7 64-22 80l-917 530c-28 16-64 7-81-22-16-28-6-64 22-80z"/><path d="m4260 1545c32-8 64 11 73 42 8 32-10 64-42 73l-1023 274c-32 8-64-10-72-42-9-32 10-64 41-73z"/><path d="m4291 2675c32 9 50 41 42 73-9 31-41 50-73 42l-1023-275c-31-8-50-40-41-72 8-32 40-50 72-42z"/><path d="m4087 3208c29 16 38 52 22 80-17 29-53 38-81 22l-917-530c-28-16-38-52-22-80 17-29 53-38 81-22z"/><path d="m3310 4028c16 28 7 64-22 81-28 16-64 7-80-22l-530-917c-16-28-7-64 22-81 28-16 64-6 80 22z"/><path d="m2790 4260c8 32-11 64-42 73-32 8-64-10-73-42l-274-1023c-8-32 10-64 42-72 32-9 64 10 72 41z"/><path d="m1660 4291c-9 32-41 50-73 42-31-9-50-41-42-73l274-1023c9-31 41-50 73-41 32 8 50 40 42 72z"/><path d="m1127 4087c-16 29-52 38-80 22-29-17-38-53-22-81l530-917c16-28 52-38 80-22 29 17 38 53 22 81z"/></g></g></svg>