<svg height="512pt" viewBox="0 -36 512.00043 512" width="512pt" xmlns="http://www.w3.org/2000/svg"><path d="m324.558594 27.722656c-10.582032-10.582031-26.085938-13.246094-39.148438-7.996094-5.25 13.0625-2.585937 28.5625 7.996094 39.148438.003906.003906.007812.007812.011719.007812.554687.554688.554687 1.433594 0 1.988282-.003907.003906-.007813.007812-.011719.007812-10.582031 10.585938-13.246094 26.085938-7.996094 39.148438 13.0625 5.25 28.566406 2.585937 39.148438-7.996094 8.742187-8.742188 12.066406-20.84375 9.996094-32.152344 2.070312-11.3125-1.253907-23.410156-9.996094-32.15625zm0 0" fill="#a6b6c4"/><path d="m334.949219 49.574219c-.824219 7.980469-4.277344 15.738281-10.390625 21.855469-10.582032 10.582031-26.085938 13.246093-39.148438 7.992187-.425781-1.058594-.777344-2.140625-1.101562-3.230469-2.308594 7.808594-1.953125 16.234375 1.101562 23.835938 13.0625 5.25 28.566406 2.585937 39.148438-7.996094 8.742187-8.742188 12.066406-20.84375 9.996094-32.152344.625-3.402344.75-6.875.394531-10.304687zm0 0" fill="#879caf"/><path d="m446.164062 116.207031c-9.070312 2.316407-18.636718 3.546875-28.523437 3.546875-44.335937 0-82.304687-24.757812-98.070313-59.878906 15.765626-35.121094 53.734376-59.875 98.070313-59.875 9.886719 0 19.453125 1.226562 28.53125 3.535156zm0 0" fill="#879caf"/><path d="m446.164062 116.207031v-30.90625c-9.070312 2.320313-18.636718 3.546875-28.523437 3.546875-37.5 0-70.441406-17.710937-89.25-44.425781-.992187 1.410156-1.917969 2.859375-2.84375 4.3125-2.238281 3.570313-4.25 7.296875-5.976563 11.140625 4.433594 9.878906 10.625 18.9375 18.21875 26.855469 20.648438 21.53125 50.195313 33.023437 79.851563 33.023437 9.886719 0 19.453125-1.230468 28.523437-3.546875zm0 0" fill="#698199"/><path d="m507.476562 74.488281c-13.820312 20.089844-35.589843 35.207031-61.3125 41.71875-9.179687-16.714843-14.390624-35.917969-14.390624-56.332031 0-20.417969 5.210937-39.625 14.398437-56.339844 25.714844 6.523438 47.484375 21.628906 61.304687 41.722656 6.03125 8.765626 6.03125 20.460938 0 29.230469zm0 0" fill="#a6b6c4"/><path d="m510.867188 52.289062c-.875-2.871093-2.277344-5.429687-3.996094-7.871093-13.847656 19.667969-35.347656 34.464843-60.707032 40.882812-3.621093.925781-7.328124 1.671875-11.097656 2.238281 2.449219 10.132813 6.203125 19.757813 11.097656 28.667969 9.644532-2.441406 18.734376-6.09375 27.058594-10.761719 13.539063-7.597656 25.445313-18.152343 34.253906-30.957031 4.421876-6.429687 5.671876-14.742187 3.390626-22.199219zm0 0" fill="#879caf"/><path d="m470.605469 64.601562c-4.269531 0-7.726563-3.460937-7.726563-7.726562v-10.859375c0-4.269531 3.457032-7.726563 7.726563-7.726563s7.726562 3.457032 7.726562 7.726563v10.859375c0 4.265625-3.460937 7.726562-7.726562 7.726562zm0 0" fill="#334151"/><path d="m404.605469 56.828125c-4.519531-7.871094-13.007813-13.171875-22.734375-13.171875-9.726563 0-18.210938 5.300781-22.730469 13.171875-1.082031 1.878906-1.082031 4.210937 0 6.089844 4.519531 7.867187 13.003906 13.171875 22.730469 13.171875 9.726562 0 18.210937-5.304688 22.734375-13.171875 1.078125-1.878907 1.078125-4.210938 0-6.089844zm0 0" fill="#a6b6c4"/><path d="m41.757812 27.722656c-10.582031-10.582031-26.082031-13.246094-39.144531-7.996094-5.25 13.0625-2.5898435 28.5625 7.996094 39.144532 0 .003906.003906.007812.007813.011718.554687.554688.558593 1.433594 0 1.988282-.003907 0-.007813.003906-.007813.007812-10.5859375 10.582032-13.246094 26.085938-7.996094 39.148438 13.0625 5.25 28.5625 2.585937 39.144531-7.996094 8.746094-8.746094 12.066407-20.84375 10-32.15625 2.066407-11.308594-1.253906-23.40625-10-32.152344zm0 0" fill="#a6b6c4"/><path d="m52.148438 49.574219c-.820313 7.980469-4.273438 15.738281-10.390626 21.855469-10.582031 10.582031-26.082031 13.246093-39.144531 7.992187-.425781-1.058594-.78125-2.140625-1.105469-3.230469-2.308593 7.808594-1.953124 16.234375 1.105469 23.835938 13.0625 5.25 28.5625 2.585937 39.144531-7.996094 8.746094-8.742188 12.066407-20.84375 10-32.152344.621094-3.402344.746094-6.875.390626-10.304687zm0 0" fill="#879caf"/><path d="m163.363281 116.207031c-9.066406 2.316407-18.632812 3.546875-28.519531 3.546875-44.339844 0-82.304688-24.757812-98.074219-59.878906 15.769531-35.121094 53.734375-59.875 98.074219-59.875 9.886719 0 19.453125 1.226562 28.527344 3.535156zm0 0" fill="#879caf"/><path d="m163.363281 116.207031s.003907-30.90625 0-30.90625c-9.066406 2.320313-18.632812 3.546875-28.519531 3.546875-37.5 0-70.441406-17.710937-89.25-44.425781-.992188 1.410156-1.921875 2.859375-2.847656 4.3125-2.234375 3.570313-4.25 7.296875-5.976563 11.140625 4.433594 9.878906 10.625 18.9375 18.21875 26.855469 20.652344 21.53125 50.199219 33.023437 79.851563 33.023437 9.890625 0 19.457031-1.230468 28.523437-3.546875zm0 0" fill="#698199"/><path d="m224.675781 74.488281c-13.820312 20.089844-35.589843 35.207031-61.3125 41.71875-9.175781-16.714843-14.390625-35.917969-14.390625-56.332031 0-20.417969 5.214844-39.625 14.402344-56.339844 25.710938 6.523438 47.480469 21.628906 61.300781 41.722656 6.035157 8.765626 6.035157 20.460938 0 29.230469zm0 0" fill="#a6b6c4"/><path d="m228.070312 52.289062c-.878906-2.871093-2.28125-5.429687-4-7.871093-13.84375 19.667969-35.347656 34.464843-60.707031 40.882812-3.621093.925781-7.324219 1.671875-11.09375 2.238281 2.449219 10.132813 6.199219 19.757813 11.09375 28.667969 9.648438-2.441406 18.738281-6.09375 27.0625-10.761719 13.535157-7.597656 25.441407-18.152343 34.25-30.957031 4.425781-6.429687 5.675781-14.742187 3.394531-22.199219zm0 0" fill="#879caf"/><path d="m187.804688 64.601562c-4.265626 0-7.726563-3.460937-7.726563-7.726562v-10.859375c0-4.269531 3.460937-7.726563 7.726563-7.726563 4.269531 0 7.726562 3.457032 7.726562 7.726563v10.859375c0 4.265625-3.457031 7.726562-7.726562 7.726562zm0 0" fill="#334151"/><path d="m121.804688 56.828125c-4.519532-7.871094-13.003907-13.171875-22.730469-13.171875-9.726563 0-18.214844 5.300781-22.734375 13.171875-1.078125 1.878906-1.078125 4.210937 0 6.089844 4.519531 7.867187 13.007812 13.171875 22.734375 13.171875 9.726562 0 18.210937-5.304688 22.730469-13.171875 1.078124-1.878907 1.078124-4.210938 0-6.089844zm0 0" fill="#a6b6c4"/><path d="m324.558594 347.730469c-10.582032-10.582031-26.085938-13.246094-39.148438-7.996094-5.25 13.0625-2.585937 28.5625 7.996094 39.144531.003906.003906.007812.007813.011719.011719.554687.554687.554687 1.433594 0 1.984375-.003907.003906-.007813.007812-.011719.011719-10.582031 10.582031-13.246094 26.085937-7.996094 39.144531 13.0625 5.253906 28.566406 2.589844 39.148438-7.992188 8.742187-8.746093 12.066406-20.847656 9.996094-32.15625 2.070312-11.308593-1.253907-23.410156-9.996094-32.152343zm0 0" fill="#a6b6c4"/><path d="m334.949219 369.582031c-.824219 7.980469-4.277344 15.734375-10.390625 21.851563-10.582032 10.582031-26.085938 13.246094-39.148438 7.996094-.425781-1.0625-.777344-2.144532-1.101562-3.230469-2.308594 7.804687-1.953125 16.230469 1.101562 23.832031 13.0625 5.25 28.566406 2.589844 39.148438-7.996094 8.742187-8.742187 12.066406-20.84375 9.996094-32.152344.625-3.398437.75-6.871093.394531-10.300781zm0 0" fill="#879caf"/><path d="m446.164062 436.214844c-9.070312 2.316406-18.636718 3.542968-28.523437 3.542968-44.335937 0-82.304687-24.753906-98.070313-59.875 15.765626-35.121093 53.734376-59.875 98.070313-59.875 9.886719 0 19.453125 1.226563 28.53125 3.535157zm0 0" fill="#879caf"/><path d="m446.164062 436.214844v-30.90625c-9.070312 2.316406-18.636718 3.542968-28.523437 3.542968-37.5 0-70.441406-17.710937-89.25-44.421874-.992187 1.410156-1.917969 2.855468-2.84375 4.308593-2.238281 3.574219-4.25 7.296875-5.976563 11.144531 4.433594 9.878907 10.625 18.933594 18.21875 26.851563 20.648438 21.53125 50.195313 33.023437 79.851563 33.023437 9.886719.003907 19.453125-1.226562 28.523437-3.542968zm0 0" fill="#698199"/><path d="m507.476562 394.492188c-13.820312 20.09375-35.589843 35.210937-61.3125 41.722656-9.179687-16.71875-14.390624-35.921875-14.390624-56.332032 0-20.421874 5.210937-39.625 14.398437-56.339843 25.714844 6.519531 47.484375 21.628906 61.304687 41.71875 6.03125 8.769531 6.03125 20.464843 0 29.230469zm0 0" fill="#a6b6c4"/><path d="m510.867188 372.296875c-.875-2.871094-2.277344-5.429687-3.996094-7.871094-13.847656 19.667969-35.347656 34.464844-60.707032 40.882813-3.621093.925781-7.328124 1.667968-11.097656 2.238281 2.449219 10.132813 6.203125 19.753906 11.097656 28.667969 9.644532-2.441406 18.734376-6.09375 27.058594-10.765625 13.539063-7.597657 25.445313-18.148438 34.253906-30.957031 4.421876-6.429688 5.671876-14.738282 3.390626-22.195313zm0 0" fill="#879caf"/><path d="m470.605469 384.609375c-4.269531 0-7.726563-3.460937-7.726563-7.726563v-10.863281c0-4.265625 3.457032-7.726562 7.726563-7.726562s7.726562 3.460937 7.726562 7.726562v10.863281c0 4.265626-3.460937 7.726563-7.726562 7.726563zm0 0" fill="#334151"/><path d="m404.605469 376.835938c-4.519531-7.871094-13.007813-13.171876-22.734375-13.171876-9.726563 0-18.210938 5.300782-22.730469 13.171876-1.082031 1.878906-1.082031 4.207031 0 6.085937 4.519531 7.871094 13.003906 13.171875 22.730469 13.171875 9.726562 0 18.210937-5.300781 22.734375-13.171875 1.078125-1.878906 1.078125-4.207031 0-6.085937zm0 0" fill="#a6b6c4"/><path d="m41.757812 347.730469c-10.582031-10.582031-26.082031-13.246094-39.144531-7.996094-5.25 13.0625-2.5898435 28.5625 7.996094 39.144531 0 .003906.003906.007813.007813.011719.554687.554687.558593 1.433594 0 1.984375-.003907.003906-.007813.007812-.007813.011719-10.5859375 10.582031-13.246094 26.085937-7.996094 39.144531 13.0625 5.253906 28.5625 2.589844 39.144531-7.992188 8.746094-8.746093 12.066407-20.847656 10-32.15625 2.066407-11.308593-1.253906-23.410156-10-32.152343zm0 0" fill="#a6b6c4"/><path d="m52.148438 369.582031c-.820313 7.980469-4.273438 15.734375-10.390626 21.851563-10.582031 10.582031-26.082031 13.246094-39.144531 7.996094-.425781-1.0625-.78125-2.144532-1.105469-3.230469-2.308593 7.804687-1.953124 16.230469 1.105469 23.832031 13.0625 5.25 28.5625 2.589844 39.144531-7.996094 8.746094-8.742187 12.066407-20.84375 10-32.152344.621094-3.398437.746094-6.871093.390626-10.300781zm0 0" fill="#879caf"/><path d="m163.363281 436.214844c-9.066406 2.316406-18.632812 3.542968-28.519531 3.542968-44.339844 0-82.304688-24.753906-98.074219-59.875 15.769531-35.121093 53.734375-59.875 98.074219-59.875 9.886719 0 19.453125 1.226563 28.527344 3.535157zm0 0" fill="#879caf"/><path d="m163.363281 436.214844s.003907-30.90625 0-30.90625c-9.066406 2.316406-18.632812 3.542968-28.519531 3.542968-37.5 0-70.441406-17.710937-89.25-44.421874-.992188 1.410156-1.921875 2.855468-2.847656 4.308593-2.234375 3.574219-4.25 7.296875-5.976563 11.144531 4.433594 9.878907 10.625 18.933594 18.21875 26.851563 20.652344 21.53125 50.199219 33.023437 79.851563 33.023437 9.890625.003907 19.457031-1.226562 28.523437-3.542968zm0 0" fill="#698199"/><path d="m224.675781 394.492188c-13.820312 20.09375-35.589843 35.210937-61.3125 41.722656-9.175781-16.71875-14.390625-35.921875-14.390625-56.332032 0-20.421874 5.214844-39.625 14.402344-56.339843 25.710938 6.519531 47.480469 21.628906 61.300781 41.71875 6.035157 8.769531 6.035157 20.464843 0 29.230469zm0 0" fill="#a6b6c4"/><path d="m228.070312 372.296875c-.878906-2.871094-2.28125-5.429687-4-7.871094-13.84375 19.667969-35.347656 34.464844-60.707031 40.882813-3.621093.925781-7.324219 1.667968-11.09375 2.238281 2.449219 10.132813 6.199219 19.753906 11.09375 28.667969 9.648438-2.441406 18.738281-6.09375 27.0625-10.765625 13.535157-7.597657 25.441407-18.148438 34.25-30.957031 4.425781-6.429688 5.675781-14.738282 3.394531-22.195313zm0 0" fill="#879caf"/><path d="m187.804688 384.609375c-4.265626 0-7.726563-3.460937-7.726563-7.726563v-10.863281c0-4.265625 3.460937-7.726562 7.726563-7.726562 4.269531 0 7.726562 3.460937 7.726562 7.726562v10.863281c0 4.265626-3.457031 7.726563-7.726562 7.726563zm0 0" fill="#334151"/><path d="m121.804688 376.835938c-4.519532-7.871094-13.003907-13.171876-22.730469-13.171876-9.726563 0-18.214844 5.300782-22.734375 13.171876-1.078125 1.878906-1.078125 4.207031 0 6.085937 4.519531 7.871094 13.007812 13.171875 22.734375 13.171875 9.726562 0 18.210937-5.300781 22.730469-13.171875 1.078124-1.878906 1.078124-4.207031 0-6.085937zm0 0" fill="#a6b6c4"/><path d="m183.15625 187.722656c-10.582031-10.585937-26.082031-13.246094-39.144531-7.996094-5.25 13.058594-2.585938 28.5625 7.996093 39.144532.003907.003906.007813.007812.011719.011718.554688.554688.554688 1.429688 0 1.984376-.003906.003906-.007812.007812-.011719.011718-10.582031 10.582032-13.246093 26.082032-7.996093 39.144532 13.0625 5.25 28.5625 2.589843 39.144531-7.996094 8.746094-8.742188 12.070312-20.84375 10-32.152344 2.070312-11.308594-1.253906-23.410156-10-32.152344zm0 0" fill="#a6b6c4"/><path d="m193.550781 209.574219c-.824219 7.980469-4.277343 15.734375-10.394531 21.851562-10.582031 10.582031-26.082031 13.246094-39.144531 7.996094-.425781-1.0625-.78125-2.144531-1.101563-3.230469-2.308594 7.804688-1.953125 16.230469 1.101563 23.832032 13.0625 5.25 28.5625 2.589843 39.144531-7.996094 8.746094-8.742188 12.070312-20.84375 10-32.152344.625-3.402344.746094-6.871094.394531-10.300781zm0 0" fill="#879caf"/><path d="m304.761719 276.207031c-9.066407 2.316407-18.632813 3.542969-28.519531 3.542969-44.339844 0-82.304688-24.753906-98.074219-59.875 15.769531-35.121094 53.734375-59.875 98.074219-59.875 9.886718 0 19.453124 1.226562 28.53125 3.535156zm0 0" fill="#879caf"/><path d="m304.761719 276.207031s.003906-30.90625 0-30.90625c-9.066407 2.316407-18.632813 3.542969-28.519531 3.542969-37.5 0-70.441407-17.710938-89.25-44.421875-.992188 1.410156-1.921876 2.855469-2.847657 4.308594-2.234375 3.574219-4.246093 7.296875-5.976562 11.144531 4.4375 9.878906 10.625 18.9375 18.222656 26.855469 20.648437 21.527343 50.195313 33.019531 79.851563 33.019531 9.886718 0 19.453124-1.226562 28.519531-3.542969zm0 0" fill="#698199"/><path d="m366.078125 234.484375c-13.820313 20.09375-35.589844 35.210937-61.316406 41.722656-9.175781-16.71875-14.386719-35.921875-14.386719-56.332031 0-20.421875 5.210938-39.625 14.398438-56.339844 25.714843 6.519532 47.484374 21.628906 61.304687 41.71875 6.03125 8.769532 6.03125 20.464844 0 29.230469zm0 0" fill="#a6b6c4"/><path d="m369.46875 212.289062c-.878906-2.871093-2.28125-5.429687-4-7.871093-13.84375 19.667969-35.34375 34.464843-60.707031 40.882812-3.621094.925781-7.324219 1.667969-11.09375 2.238281 2.449219 10.132813 6.203125 19.753907 11.09375 28.667969 9.648437-2.441406 18.738281-6.09375 27.0625-10.765625 13.535156-7.597656 25.441406-18.148437 34.253906-30.957031 4.421875-6.429687 5.671875-14.738281 3.390625-22.195313zm0 0" fill="#879caf"/><path d="m329.203125 224.601562c-4.265625 0-7.726563-3.460937-7.726563-7.726562v-10.863281c0-4.265625 3.460938-7.726563 7.726563-7.726563 4.269531 0 7.726563 3.460938 7.726563 7.726563v10.863281c0 4.265625-3.457032 7.726562-7.726563 7.726562zm0 0" fill="#334151"/><path d="m263.203125 216.824219c-4.519531-7.867188-13.003906-13.171875-22.730469-13.171875-9.726562 0-18.210937 5.300781-22.730468 13.171875-1.082032 1.878906-1.082032 4.210937 0 6.089843 4.515624 7.871094 13.003906 13.171876 22.730468 13.171876 9.726563 0 18.210938-5.300782 22.730469-13.171876 1.082031-1.878906 1.082031-4.210937 0-6.089843zm0 0" fill="#a6b6c4"/></svg>