<svg height="512" viewBox="0 0 512 512" width="512" xmlns="http://www.w3.org/2000/svg"><g id="flat"><circle cx="65.263" cy="168" fill="#d78e0c" r="32"/><path d="m297.263 400h-144l-93.223-118.522a15.744 15.744 0 0 1 12.375-25.478c4.793 0 11.227 3.407 14.215 7.155l84.633 104.845h109.356a16 16 0 0 1 15.988 15.369z" fill="#d78e0c"/><path d="m144 312 161.263 16 80 128 24 8v24h-48l-8-16-35.156-35.156a134.723 134.723 0 0 1 -36.844-68.844h-112z" fill="#fdc9a6"/><path d="m368.93 429.87a24.6 24.6 0 0 1 -17.4-7.2l-34.15-34.15a73.217 73.217 0 0 1 -21.38-54.65l-109.526-10.023 22.789-3.847 96 8z" fill="#f6bb92"/><path d="m217.263 320 83.286-30.286a28.478 28.478 0 0 1 9.731-1.714 28.474 28.474 0 0 1 26.284 17.523l32.699 78.477 30.737 16v24h-32l-41.355-41.355a73.2 73.2 0 0 1 -21.382-54.645z" fill="#fdc9a6"/><path d="m112 176 32.942-35.518a18.3 18.3 0 0 0 -2.286-23.089 18.3 18.3 0 0 0 -26.316.453l-87.7 93.961a17.264 17.264 0 0 0 .413 23.986 17.263 17.263 0 0 0 24.414 0l27.796-27.793z" fill="#c7830b"/><path d="m89.687 154.706 5.46 4.66a28.837 28.837 0 0 1 10.116 21.934v10.7l-24 24 8 16v32h-9.3a22.7 22.7 0 0 1 -22.7-22.7 155.874 155.874 0 0 0 -6.77-45.441z" fill="#7a4922"/><path d="m89.263 264v-3.156a95.263 95.263 0 0 0 -16-52.844 77.7 77.7 0 0 0 20.909-38.089l.428-1.911a40 40 0 0 0 24 8h2.667v16l4.132 8.264a12 12 0 0 1 -2.248 13.852l-9.888 9.884 8 24z" fill="#fdc9a6"/><path d="m121.263 248h32a24 24 0 0 1 24 24l32 48-3.794 1.825a66.425 66.425 0 0 0 -36.206 46.175l-80-104z" fill="#faa6b2"/><path d="m153.263 400-32 88h32l24-56h88l24 56h32l-32-88z" fill="#a3612d"/><path d="m86.63 263.155 36.633 48.845a20 20 0 0 0 16 8h82a12 12 0 0 0 12-12 20 20 0 0 0 -20-20h-68l-23.648-35.473a28.135 28.135 0 0 0 -23.408-12.527 14.473 14.473 0 0 0 -12.944 8 14.472 14.472 0 0 0 1.367 15.155z" fill="#fdc9a6"/><path d="m335.993 168a48 48 0 0 1 -.241-96h.255a48 48 0 0 1 .241 96z" fill="#ea2b2d"/><g fill="#ffc864"><path d="m386.648 76.827a8 8 0 0 1 -5.686-13.627l16.883-17.058a8 8 0 0 1 11.373 11.258l-16.883 17.055a7.979 7.979 0 0 1 -5.687 2.372z"/><path d="m335.628 56a8 8 0 0 1 -8-7.959l-.123-24a8 8 0 0 1 7.96-8.041h.042a8 8 0 0 1 8 7.959l.123 24a8 8 0 0 1 -7.96 8.041z"/><path d="m284.827 77.352a7.98 7.98 0 0 1 -5.628-2.314l-17.058-16.883a8 8 0 1 1 11.259-11.373l17.059 16.883a8 8 0 0 1 -5.628 13.687z"/><path d="m240 128.494a8 8 0 0 1 -.04-16l24-.123h.04a8 8 0 0 1 .04 16l-24 .123z"/><path d="m268.469 196.231a8 8 0 0 1 -5.687-13.627l16.883-17.059a8 8 0 1 1 11.373 11.255l-16.883 17.058a7.979 7.979 0 0 1 -5.686 2.373z"/><path d="m336.493 224a8 8 0 0 1 -8-7.959l-.123-24a8 8 0 0 1 7.96-8.041h.042a8 8 0 0 1 8 7.959l.123 24a8 8 0 0 1 -7.96 8.041z"/><path d="m404.231 195.531a7.975 7.975 0 0 1 -5.627-2.313l-17.059-16.883a8 8 0 1 1 11.255-11.373l17.058 16.883a8 8 0 0 1 -5.628 13.686z"/><path d="m408 127.629a8 8 0 0 1 -.04-16l24-.123h.04a8 8 0 0 1 .04 16l-24 .123z"/><path d="m365.256 62.216a8.005 8.005 0 0 1 -7.3-11.254l3.252-7.31a8 8 0 0 1 14.619 6.5l-3.252 7.31a8 8 0 0 1 -7.319 4.754z"/><path d="m310.175 60.794a8 8 0 0 1 -7.47-5.133l-2.869-7.468a8 8 0 1 1 14.935-5.738l2.87 7.468a8 8 0 0 1 -7.466 10.871z"/><path d="m270.209 98.741a7.974 7.974 0 0 1 -3.247-.692l-7.31-3.252a8 8 0 0 1 6.5-14.619l7.31 3.252a8 8 0 0 1 -3.257 15.311z"/><path d="m261.326 156.7a8 8 0 0 1 -2.871-15.469l7.468-2.87a8 8 0 0 1 5.738 14.936l-7.468 2.869a7.991 7.991 0 0 1 -2.867.534z"/><path d="m303.482 201.1a8 8 0 0 1 -7.3-11.254l3.252-7.31a8 8 0 0 1 14.619 6.5l-3.252 7.31a8 8 0 0 1 -7.319 4.754z"/><path d="m364.7 202.678a8 8 0 0 1 -7.469-5.133l-2.87-7.468a8 8 0 1 1 14.936-5.738l2.869 7.468a8 8 0 0 1 -7.466 10.871z"/><path d="m409.091 160.515a7.972 7.972 0 0 1 -3.247-.693l-7.31-3.252a8 8 0 0 1 6.5-14.619l7.31 3.252a8 8 0 0 1 -3.257 15.312z"/><path d="m403.21 102.175a8 8 0 0 1 -2.871-15.47l7.468-2.869a8 8 0 1 1 5.738 14.935l-7.468 2.87a7.991 7.991 0 0 1 -2.867.534z"/></g><path d="m486.992 272a32 32 0 0 0 -38.371-39.135 39.984 39.984 0 0 0 -64.975-.376 19.986 19.986 0 0 0 -11.906 7.9 24.015 24.015 0 0 0 -18.374 31.611z" fill="#eae9e4"/><path d="m272 200a24 24 0 0 0 -20.108-23.681 32 32 0 0 0 -58.892 7.731c-.332-.02-.661-.05-1-.05a16 16 0 0 0 -16 16z" fill="#eae9e4"/><path d="m488 496h-464a8 8 0 0 1 0-16h464a8 8 0 0 1 0 16z" fill="#7a4922"/><path d="m177.263 432 3.343-8h81.452l3.205 8z" fill="#7a4922"/></g></svg>