<svg id="Capa_1" enable-background="new 0 0 497 497" viewBox="0 0 497 497" xmlns="http://www.w3.org/2000/svg"><g><path d="m266.378 153.214c-8.709-8.709-20.242-13.943-32.447-14.81-2.199-.156-4.363.616-5.922 2.175l-21.213 21.213 88.351 62.618h42.426z" fill="#87a1c1"/><path d="m245.165 174.427c-8.709-8.709-20.242-13.943-32.447-14.81-2.199-.156-4.363.616-5.922 2.175l-11.516 11.516c-3.487 3.487-2.717 9.333 1.553 11.799l68.075 39.303h30.239z" fill="#98b6d1"/><path d="m194.157 259.733-91.865 57.505c23.571 19.508 58.559 18.227 80.63-3.844l43.708-43.708z" fill="#ff6053"/><path d="m161.709 292.181 32.448-32.448-8.122-2.49-82.683 47.737c-4.515 2.607-5.076 8.934-1.06 12.258 11.67 7.608 37.346-2.986 59.417-25.057z" fill="#ff7d6d"/><path d="m121.748 197.264c-3.175-1.833-6.912-2.441-10.504-1.708-13.524 2.763-16.452 20.783-4.499 27.686l16 9.239 85.428 14.688c-.001.001-42.13-24.326-86.425-49.905z" fill="#7587b3"/><path d="m55.144 210.644-15.745-9.09c-6.492-3.748-13.683-6.075-21.097-6.854-3.29-.345-6.423 1.574-7.656 4.644-14.194 35.332-14.194 74.796 0 110.128 1.233 3.07 4.366 4.99 7.656 4.644 7.415-.778 14.605-3.105 21.098-6.854l15.745-9.09z" fill="#a8cae0"/><path d="m111.597 282.773v-56.729c-14.277 2.84-29.099.393-41.706-6.886l-14.747-8.514c-14.317 9.429-23.315 25.511-23.315 43.766 0 18.254 8.999 34.335 23.315 43.763l14.747-8.514c12.607-7.279 27.429-9.726 41.706-6.886z" fill="#98b6d1"/><path d="m271.863 312.725c-8.778-.831-16.347 6.117-16.347 14.934v23.435c0 4.684 4.261 8.295 8.855 7.38 20.625-4.108 36.145-22.289 36.145-44.131v-31.618h-28.653z" fill="#ff6053"/><path d="m61.83 254.409c0 9.833 6.037 19.666 18.11 22.068l147.66 29.371c25.771 5.599 52.525 8.561 79.973 8.561 31.334 0 61.761-3.865 90.853-11.108l22.832-63.892z" fill="#fef1d4"/><path d="m421.257 254.408c-4.164-27.868-25.746-50.597-54.207-55.301-19.372-3.088-39.236-4.699-59.477-4.699-27.446 0-54.199 2.961-79.968 8.56l-147.665 29.373c-12.074 2.402-18.111 12.235-18.11 22.068 0 0 359.427 0 359.427-.001z" fill="#b9dff0"/><path d="m422 264.239c0-3.334-.262-6.614-.743-9.831h-29.257c0-8.284-6.716-15-15-15s-15 6.716-15 15v19.593c0 19.219 17.806 33.457 36.426 29.299 11.309-2.815 22.422-6.125 33.299-9.941z" fill="#ff6053"/><path d="m267.202 260.66c13.556 9.171 30.518 11.132 45.531 5.881v-24.263c-15.011-5.252-31.973-3.294-45.53 5.874-4.443 3.005-4.444 9.503-.001 12.508z" fill="#98b6d1"/><path d="m312.733 242.278c-8.328-2.914-17.029 3.446-16.916 12.302.114 8.933 9.337 14.763 17.719 11.673 3.799-1.4 7.465-3.267 10.911-5.6 4.359-2.951 4.512-9.405.165-12.373-3.736-2.551-7.733-4.551-11.879-6.002z" fill="#ff6053"/><path d="m489.324 241.325c-14.704-8.164-30.023-15.35-45.856-21.508l-.152 69.238c15.886-6.171 31.257-13.374 46.008-21.563 10.235-5.683 10.235-20.484 0-26.167z" fill="#b9dff0"/><path d="m443.501 219.819c-24.352-9.477-49.937-16.485-76.451-20.712 14.414 2.382 24.95 14.945 24.95 29.573v36.297c0 20.588 20.297 35.151 39.725 28.383 3.871-1.358 7.713-2.779 11.525-4.261 14.313-5.564 23.75-19.336 23.75-34.692 0-15.257-9.281-29.055-23.499-34.588z" fill="#c2f0fc"/><g fill="#7587b3"><circle cx="122.773" cy="254.409" r="7.5"/><path d="m235.273 233.523c0 4.142-3.358 7.5-7.5 7.5s-7.5-3.358-7.5-7.5 3.358-7.5 7.5-7.5 7.5 3.358 7.5 7.5z"/><circle cx="152.773" cy="254.409" r="7.5"/><circle cx="197.773" cy="269.409" r="7.5"/></g><circle cx="437" cy="249.538" fill="#515985" r="7.5"/></g><g/><g/><g/><g/><g/><g/><g/><g/><g/><g/><g/><g/><g/><g/><g/></svg>