<?xml version="1.0" encoding="UTF-8"?>
<svg id="Layer_2" xmlns="http://www.w3.org/2000/svg" viewBox="0 0 201.38 200.59">
  <defs>
    <style>
      .cls-1 {
        fill: #cf976a;
      }

      .cls-2 {
        fill: #965a50;
      }

      .cls-3 {
        fill: #f9ae00;
      }

      .cls-4 {
        fill: #805333;
      }

      .cls-5 {
        fill: #afd755;
      }

      .cls-6 {
        fill: #96be4b;
      }

      .cls-7 {
        fill: #af6e5a;
      }

      .cls-8 {
        fill: #cb8252;
      }

      .cls-9 {
        fill: #4b3f4e;
      }

      .cls-10 {
        fill: #bee86e;
      }

      .cls-11 {
        fill: #a56a43;
      }

      .cls-12 {
        fill: #fdd83b;
      }
    </style>
  </defs>
  <g id="Layer_1-2" data-name="Layer_1">
    <g>
      <path class="cls-11" d="M199.79,174.36c0-14.43-8.01-26.13-17.91-26.22h0s-110.73,0-110.73,0v52.46h110.73c9.9-.1,17.91-11.8,17.91-26.23Z"/>
      <g>
        <path class="cls-4" d="M174.85,161.82c-1.22-.21-2.61-.44-4.52-.65-7.66-.81-15.37-.98-23.06-.51-1.13.07-1.98,1.03-1.92,2.16.07,1.13,1.03,1.98,2.16,1.92,7.46-.46,14.94-.29,22.38.5,1.79.19,3.05.41,4.27.62,2.36.45,4.76.67,7.17.66.61,0,1.28,0,2-.03,4.69-.15,10.24-1.6,13.91-2.56.34-.09.66-.17.96-.25-.4-1.31-.89-2.59-1.46-3.84-.18.05-.36.09-.54.14-3.49.92-8.77,2.3-13.01,2.43-2.8.15-5.6-.04-8.36-.57h0Z"/>
        <path class="cls-4" d="M149.75,174.11c1.12-.14,1.91-1.16,1.78-2.28-.14-1.12-1.16-1.91-2.28-1.78-.02,0-.04,0-.06,0-.56.08-1.16.21-1.79.34-1.93.52-3.94.68-5.93.48-3.22-.49-6.49-.52-9.72-.1-1.63.16-3.65.35-6.5.49-3.97.17-7.95.04-11.91-.4-1.12-.14-2.14.65-2.28,1.77-.14,1.12.65,2.14,1.77,2.28.02,0,.05,0,.07,0,3.01.33,6.03.5,9.06.5,1.18,0,2.34-.03,3.48-.08,2.94-.14,5.02-.34,6.69-.5,2.91-.4,5.86-.37,8.76.08,2.46.27,4.95.09,7.34-.53.58-.12,1.09-.23,1.51-.29h0Z"/>
        <path class="cls-4" d="M187.75,170.49c-1.58-.09-3.17-.07-4.75.07-1.91.11-4.07.23-6.39.15h-.05s-.05,0-.05,0c-.02,0-2.38.03-11.79,0h0c-1.13,0-2.04.91-2.05,2.04s.91,2.04,2.04,2.05c8.85.02,11.43,0,11.8,0,2.49.08,4.73-.05,6.71-.16,1.36-.12,2.73-.14,4.1-.08,2.22.36,4.41.86,6.56,1.51,1.91.52,3.88,1.05,5.76,1.45.09-1.04.13-2.09.13-3.16,0-.33,0-.67-.02-1-1.56-.36-3.2-.8-4.81-1.24-2.36-.72-4.77-1.26-7.21-1.63h0Z"/>
        <path class="cls-4" d="M144.77,183.89c-.09-1.12-1.07-1.96-2.19-1.87,0,0-.01,0-.02,0-2.37.18-4.75.06-7.08-.38-2.17-.37-4.36-.57-6.56-.59-5.35,0-14.79-.5-15.87-.56-4.03-.62-8.09-1.03-12.16-1.24-3.91-.19-7.88-.19-11.81,0-1.13.04-2.01.99-1.96,2.12s.99,2.01,2.12,1.96c.02,0,.03,0,.05,0,3.79-.19,7.62-.19,11.4,0,3.96.2,7.92.6,11.84,1.21l.2.02c.42.02,10.44.57,16.19.57,1.99.02,3.98.2,5.94.54,1.85.32,3.72.5,5.6.52.75,0,1.56-.03,2.44-.1,1.12-.09,1.96-1.08,1.87-2.2,0,0,0,0,0,0h0Z"/>
        <path class="cls-4" d="M180.32,193.29c-1.4-.27-2.62-.5-3.58-.59-1.88-.15-3.76-.2-5.64-.16-2.55.08-5.1-.04-7.64-.36-4.3-.63-8.66-.83-13.01-.61-1.13.07-1.98,1.03-1.92,2.16.07,1.13,1.03,1.98,2.16,1.92.02,0,.04,0,.06,0,4.07-.21,8.15,0,12.18.59,2.72.34,5.46.48,8.2.4,1.74-.05,3.49,0,5.23.14.76.07,1.88.28,3.18.53,3.05.65,6.16,1.05,9.27,1.18,1.88-1.2,3.54-2.73,4.89-4.52-4.38,1.04-9.56.06-13.4-.68h0Z"/>
        <path class="cls-4" d="M136.2,157.25c1.31-.13,2.26-.26,3.09-.39.91-.13,1.69-.25,2.75-.32,2.28-.15,4.56-.04,6.81.33l.5.07c2.4.32,4.82.47,7.25.46,2.87-.01,5.75-.18,8.6-.49,1.12-.11,1.94-1.11,1.83-2.23-.11-1.12-1.11-1.94-2.23-1.83-.01,0-.03,0-.04,0-4.93.61-9.92.63-14.86.05l-.48-.07c-2.53-.41-5.11-.53-7.67-.36-1.22.09-2.12.22-3.06.36-.83.12-1.68.25-2.89.36-1.12.11-1.95,1.11-1.84,2.23s1.11,1.95,2.23,1.84h0Z"/>
        <path class="cls-4" d="M97.52,155.59c-5.58.46-9.12.26-15.88-.33-1.12-.1-2.11.74-2.21,1.86-.1,1.12.74,2.11,1.86,2.21,4.26.37,7.37.59,10.53.59,1.91,0,3.84-.08,6.05-.27,1.13-.08,1.98-1.05,1.9-2.17s-1.05-1.98-2.17-1.9c-.02,0-.04,0-.07,0Z"/>
        <path class="cls-4" d="M93.67,166.53c.26,1.1,1.36,1.77,2.46,1.51h0c1.04-.18,2.09-.24,3.15-.2,2.49,0,5.6,0,9.08-1.43,2.28-.93,5.09-.79,7.56-.67,1.05.05,2.15.14,3.21.23,4.24.34,8.63.7,12.83-.89,1.06-.39,1.6-1.56,1.22-2.62s-1.56-1.6-2.62-1.22c-.01,0-.03,0-.04.01-3.35,1.26-7.1.96-11.07.64-1.09-.09-2.22-.18-3.33-.23-2.76-.14-6.19-.31-9.31.97-2.74,1.12-5.29,1.12-7.54,1.13-1.37-.06-2.75.05-4.1.31-1.1.26-1.77,1.37-1.51,2.46,0,0,0,0,0,0h0Z"/>
        <path class="cls-4" d="M152.66,185.52c4.22.39,8.47.26,12.65-.39.35-.05.69-.11,1.04-.17,1.35-.28,2.72-.42,4.1-.42,2.35.09,3.82.84,5.52,1.7,2.15,1.24,4.55,1.99,7.03,2.19.05,0,.1,0,.15,0,1.13,0,2.04-.92,2.04-2.05,0-1.07-.83-1.96-1.9-2.03-1.93-.17-3.8-.77-5.46-1.76-2.2-1.28-4.67-2.01-7.21-2.14-1.66-.01-3.31.14-4.93.47-.33.06-.67.11-1,.16-3.85.6-7.76.72-11.64.36-1.12-.11-2.12.72-2.22,1.84-.11,1.12.72,2.12,1.84,2.22h0Z"/>
        <path class="cls-4" d="M123.89,189.34c-1.12.14-1.92,1.15-1.78,2.27s1.15,1.92,2.27,1.78c4.86-.59,9.91.05,14.79.66.09.01.17.02.26.02,1.13,0,2.04-.92,2.04-2.04,0-1.03-.77-1.9-1.79-2.03-5.13-.65-10.44-1.32-15.8-.67h0Z"/>
        <path class="cls-4" d="M79.79,196.74c1.07.22,2.17.32,3.26.31,3.24,0,6.69-.78,10.05-1.54,2.48-.64,5-1.08,7.55-1.33,2.72-.08,5.45.06,8.15.42l8.34.89c1.12.12,2.13-.69,2.25-1.82.12-1.12-.69-2.13-1.82-2.25l-8.34-.89c-2.93-.39-5.88-.54-8.83-.43-2.77.26-5.51.74-8.2,1.43-4.1.93-8.35,1.89-11.58,1.22-1.1-.25-2.19.44-2.44,1.54s.44,2.19,1.54,2.44c.02,0,.05,0,.07.01h0Z"/>
        <path class="cls-4" d="M105.79,156.52c-.75-.56-1.55-4.75-2.79-6.91s-8.05-11.08-8.05-11.08l13.89-2.16c3.09,2.78,9.59,8.61,12.37,9.53s7.15,2.12,7.15,2.12c.56.88,2.48,3,1.2,5.24l-1.43,2.78"/>
      </g>
      <ellipse class="cls-1" cx="102.26" cy="137.61" rx="7.51" ry="3.39"/>
      <ellipse class="cls-1" cx="71.14" cy="174.36" rx="18.03" ry="26.23"/>
      <ellipse class="cls-8" cx="71.14" cy="174.36" rx="11.17" ry="17.99"/>
      <ellipse class="cls-11" cx="71.14" cy="174.36" rx="3.79" ry="8.58"/>
      <g>
        <path class="cls-5" d="M181.58,114.74v-12.85c0-5.16,4.57-9.13,9.69-8.4l5.26.75c2.79.4,4.86,2.79,4.86,5.6v4.99c0,.8-.66,1.44-1.46,1.41l.02,2.01c.01,1.31-.87,2.46-2.14,2.77l-2.57.62c-.59.14-1.03.65-1.08,1.26-.39,5.5-4.18,31.52-40.87,31.52-31.12,0-31.12-9.9-31.12-9.9v-2.83l59.41-16.97Z"/>
        <g>
          <path class="cls-6" d="M164.28,134.07l11.61-8.49,3.08,1.02c1.58.52,2.71,1.93,2.88,3.59l1.14,11.42h1.41c1.74,0,3.3,1.06,3.94,2.67l.99,2.46c.37.93-.31,1.94-1.31,1.94h-7.21c-2.02,0-3.76-1.43-4.16-3.41l-1.5-7.51c-1.92,0-8.17-.61-10.87-3.7Z"/>
          <path class="cls-6" d="M137.73,134.54v7.07h1.15c1.67,0,3.18.98,3.87,2.5l1.16,2.58c.42.94-.26,1.99-1.29,1.99h-9.13c-1.56,0-2.83-1.27-2.83-2.83v-11.32h7.07Z"/>
        </g>
        <path class="cls-9" d="M192.89,102.36c.98,0,1.77-.79,1.77-1.77v-1.41c0-.98-.79-1.77-1.77-1.77s-1.77.79-1.77,1.77v1.41c0,.98.79,1.77,1.77,1.77Z"/>
        <path class="cls-5" d="M199.82,109.08c-2.46-.09-5.76-.39-7.56-1.3-.7-.35-.98-1.2-.63-1.9.35-.7,1.2-.98,1.9-.63,1.03.51,3.42.89,6.4,1,0,0,0,0,0,0l.02,2.01c0,.28-.04.55-.12.81Z"/>
        <path class="cls-10" d="M191.26,93.49l2.65.38c-3.3,1.13-5.74,4.25-5.74,8.02v6.25c0,3.65-2.96,6.6-6.6,6.6h0v-12.85c0-5.16,4.57-9.13,9.69-8.4Z"/>
        <path class="cls-7" d="M181.58,114.74s-1.41,33.95-64.58,18.62c-2.95-.72-4.24-4.09-2.6-6.58,7.99-12.15,31.91-40.5,67.18-12.04Z"/>
        <path class="cls-2" d="M131.08,132.37l2.5-10.44c.27-1.11-.16-2.27-1.09-2.95l-7.12-5.19c.71-.64,1.44-1.28,2.2-1.9l6.5,4.73c.95.69,2.24.72,3.22.07l4.55-3c.95-.63,1.44-1.77,1.22-2.9l-1.31-6.78c.9-.28,1.81-.53,2.74-.74l1.42,7.37c.19.99.89,1.8,1.84,2.13l6.82,2.39c1.39.49,2.91-.17,3.51-1.51l4.33-9.6c.89.27,1.79.57,2.69.91l-5.18,11.5c-.36.8-.33,1.72.08,2.49l4.05,7.61c.74,1.39,2.49,1.93,3.86,1.16,8.05-4.56,10.82-10.91,11.77-14.48.63.48,1.26.97,1.9,1.48,0,0-1.41,33.95-64.58,18.62-2-.49-3.21-2.2-3.29-4.02,6.39,1.46,12.14,2.44,17.36,3.04ZM161.12,127.11l-3.82-7.18c-.33-.63-.89-1.11-1.56-1.34l-9.24-3.24c-.83-.29-1.76-.18-2.49.31l-6.22,4.11c-.6.4-1.03,1-1.19,1.7l-2.68,11.19c10.8.99,19.08.24,25.43-1.48,1.77-.48,2.64-2.46,1.78-4.07Z"/>
      </g>
      <circle class="cls-3" cx="60.21" cy="60.21" r="35.1"/>
      <g>
        <path class="cls-12" d="M60.21,15.83c-1.3,0-2.35-1.05-2.35-2.35V2.35c0-1.3,1.05-2.35,2.35-2.35s2.35,1.05,2.35,2.35v11.12c0,1.3-1.05,2.35-2.35,2.35Z"/>
        <path class="cls-12" d="M60.21,120.41c-1.3,0-2.35-1.05-2.35-2.35v-11.12c0-1.3,1.05-2.35,2.35-2.35s2.35,1.05,2.35,2.35v11.12c0,1.3-1.05,2.35-2.35,2.35Z"/>
        <path class="cls-12" d="M36.84,22.09c-.84,0-1.62-.45-2.04-1.18l-5.56-9.63c-.66-1.12-.28-2.56.84-3.22s2.56-.28,3.22.84c0,0,.01.02.02.03l5.56,9.63c.65,1.12.26,2.56-.86,3.21-.36.21-.76.31-1.17.32h0Z"/>
        <path class="cls-12" d="M89.14,112.66c-.84,0-1.62-.45-2.04-1.18l-5.56-9.63c-.65-1.12-.26-2.56.86-3.21s2.56-.26,3.21.86l5.56,9.63c.65,1.12.26,2.56-.86,3.21-.36.21-.76.31-1.17.32h0Z"/>
        <path class="cls-12" d="M19.73,39.19c-.41,0-.82-.11-1.17-.32l-9.63-5.56c-1.13-.64-1.52-2.08-.88-3.21.64-1.13,2.08-1.52,3.21-.88,0,0,.02.01.03.02l9.63,5.56c1.13.65,1.51,2.09.86,3.21-.42.73-1.2,1.18-2.04,1.18Z"/>
        <path class="cls-12" d="M110.31,91.49c-.41,0-.82-.11-1.17-.32l-9.63-5.56c-1.12-.65-1.51-2.09-.86-3.21s2.09-1.51,3.21-.86h0l9.63,5.56c1.12.65,1.51,2.09.86,3.21-.42.73-1.2,1.18-2.04,1.18h0Z"/>
        <path class="cls-12" d="M13.47,62.56H2.35c-1.3,0-2.35-1.05-2.35-2.35s1.05-2.35,2.35-2.35h11.12c1.3,0,2.35,1.05,2.35,2.35s-1.05,2.35-2.35,2.35Z"/>
        <path class="cls-12" d="M118.06,62.56h-11.12c-1.3,0-2.35-1.05-2.35-2.35s1.05-2.35,2.35-2.35h11.12c1.3,0,2.35,1.05,2.35,2.35s-1.05,2.35-2.35,2.35Z"/>
        <path class="cls-12" d="M10.11,91.49c-1.3,0-2.35-1.05-2.35-2.35,0-.84.45-1.62,1.18-2.04l9.63-5.56c1.12-.65,2.56-.26,3.21.86.65,1.12.26,2.56-.86,3.21l-9.63,5.56c-.36.21-.76.32-1.17.32Z"/>
        <path class="cls-12" d="M100.68,39.19c-1.3,0-2.35-1.05-2.35-2.35,0-.84.45-1.62,1.18-2.04l9.63-5.56c1.12-.66,2.56-.28,3.22.84.66,1.12.28,2.56-.84,3.22,0,0-.02.01-.03.02l-9.63,5.56c-.36.21-.76.32-1.17.32h0Z"/>
        <path class="cls-12" d="M31.28,112.66c-1.3,0-2.35-1.06-2.35-2.35,0-.41.11-.82.32-1.17l5.56-9.63c.65-1.12,2.09-1.51,3.21-.86,1.12.65,1.51,2.09.86,3.21l-5.56,9.63c-.42.73-1.2,1.18-2.04,1.18h0Z"/>
        <path class="cls-12" d="M83.57,22.09c-1.3,0-2.35-1.06-2.35-2.35,0-.41.11-.82.32-1.17l5.56-9.63c.64-1.13,2.08-1.52,3.21-.88,1.13.64,1.52,2.08.88,3.21,0,0-.01.02-.02.03l-5.56,9.63c-.42.73-1.2,1.18-2.04,1.18Z"/>
      </g>
    </g>
  </g>
</svg>