<svg id="color_copy" height="512" viewBox="0 0 256 256" width="512" xmlns="http://www.w3.org/2000/svg" data-name="color copy"><path d="m233.1414 138.0736c0-21.19-11.7641-38.38-26.3119-38.521v-.0066h-162.6563v77.0553h162.6568v-.0067c14.5473-.1415 26.3114-17.3306 26.3114-38.521z" fill="#a56a43"/><g fill="#805333"><path d="m196.5186 119.6572c-1.7935-.3057-3.8267-.6523-6.6353-.958a203.0052 203.0052 0 0 0 -33.8745-.7529 3 3 0 0 0 .3545 5.99 197.0605 197.0605 0 0 1 32.8706.7275c2.6284.2861 4.4834.6025 6.2773.9082a54.0936 54.0936 0 0 0 10.53.9629c.8984 0 1.873-.0146 2.939-.0479 6.8945-.2158 15.0444-2.3516 20.4375-3.7646.5007-.1313.9672-.2532 1.4165-.37a45.9067 45.9067 0 0 0 -2.1387-5.6438c-.2617.0684-.5228.1366-.7988.209-5.1318 1.3447-12.8867 3.3779-19.104 3.5713a50.322 50.322 0 0 1 -12.2741-.8317z"/><path d="m159.644 137.6982a3 3 0 1 0 -.8311-5.9414c-.8242.1152-1.7017.3018-2.6309.5a24.2408 24.2408 0 0 1 -8.7046.7031 50.8023 50.8023 0 0 0 -14.2725-.1436c-2.3892.23-5.3623.5166-9.5444.7207a113.8348 113.8348 0 0 1 -17.4917-.5879 3 3 0 1 0 -.64 5.9648 125.0954 125.0954 0 0 0 13.3086.7383q2.6038 0 5.1143-.123c4.3242-.21 7.376-.5039 9.8281-.74a44.85 44.85 0 0 1 12.87.1143 30.1237 30.1237 0 0 0 10.7832-.7783c.858-.1828 1.5983-.341 2.211-.427z"/><path d="m215.4663 132.39a47.8165 47.8165 0 0 0 -6.9751.0957c-2.8018.1572-5.9785.3359-9.3906.2246l-.0669-.0029-.0669.001c-.0332 0-3.5024.0371-17.3174 0h-.0083a3 3 0 0 0 -.0083 6c13.0015.0352 16.7925.0049 17.3364.001 3.6558.1162 6.95-.07 9.8594-.2334a45.1943 45.1943 0 0 1 6.022-.1172 73.6018 73.6018 0 0 1 9.6328 2.2227c2.8124.7627 5.6956 1.5354 8.46 2.13.1256-1.5215.1979-3.067.1979-4.6379 0-.4916-.0128-.9788-.0254-1.4658-2.2962-.5294-4.705-1.1782-7.0623-1.8176a76.18 76.18 0 0 0 -10.5873-2.4002z"/><path d="m152.332 152.0771a2.9879 2.9879 0 0 0 -3.2388-2.74 39.5242 39.5242 0 0 1 -10.3989-.5635 59.1236 59.1236 0 0 0 -9.6309-.8594c-7.853 0-21.7319-.7324-23.313-.8174a174.5711 174.5711 0 0 0 -17.8618-1.8154c-5.7476-.2842-11.5825-.2842-17.3418 0a3 3 0 1 0 .2969 5.9922c5.563-.2754 11.1973-.2754 16.7466 0a168.6717 168.6717 0 0 1 17.39 1.7754l.2954.03c.6221.0342 15.3291.835 23.7881.835a53.2641 53.2641 0 0 1 8.7251.791 50.9037 50.9037 0 0 0 8.22.7637c1.1055 0 2.2915-.0449 3.583-.1533a2.9988 2.9988 0 0 0 2.7401-3.2383z"/><path d="m204.5532 165.8828c-2.061-.3945-3.8413-.7344-5.2563-.8623a77.714 77.714 0 0 0 -8.2856-.2295 72.6332 72.6332 0 0 1 -11.2153-.5322 98.3333 98.3333 0 0 0 -19.1045-.9023 3 3 0 1 0 .4492 5.9824 90.0559 90.0559 0 0 1 17.8857.8711 78.2 78.2 0 0 0 12.0493.5811 71.43 71.43 0 0 1 7.6787.2041c1.1216.1025 2.7671.417 4.6724.78a81.8161 81.8161 0 0 0 13.6232 1.7368 27.6717 27.6717 0 0 0 7.1807-6.6338c-6.4412 1.5299-14.0448.0818-19.6775-.9954z"/><path d="m139.7427 112.9424c1.9219-.1846 3.314-.3887 4.5425-.5684 1.3311-.1953 2.48-.3643 4.0469-.4727a44.2472 44.2472 0 0 1 10.0078.4873l.7388.1035a78.9525 78.9525 0 0 0 10.6465.6729 117.9615 117.9615 0 0 0 12.6348-.7256 3 3 0 1 0 -.6465-5.9648 91.1994 91.1994 0 0 1 -21.8237.0723l-.7085-.0986a50.4915 50.4915 0 0 0 -11.2651-.5332c-1.7944.125-3.1094.3184-4.501.5225-1.2158.1777-2.4731.3623-4.2456.5322a3 3 0 1 0 .5732 5.9727z"/><path d="m82.9141 110.498c-8.1934.6816-13.4.3789-23.3311-.4795a3 3 0 0 0 -.5156 5.9785c6.2622.54 10.8262.8721 15.4609.8721 2.8047 0 5.6362-.1221 8.8838-.3926a3 3 0 1 0 -.498-5.9785z"/><path d="m77.27 126.57a2.996 2.996 0 0 0 3.6182 2.2148 22.0323 22.0323 0 0 1 4.623-.2852c3.6626-.0039 8.22-.0088 13.335-2.1 3.3516-1.37 7.4736-1.167 11.1118-.9854 1.5454.0771 3.1553.207 4.7124.332 6.231.5029 12.6753 1.0215 18.8506-1.3018a3 3 0 1 0 -2.1133-5.6152c-4.9185 1.85-10.4248 1.4072-16.2554.9365-1.6021-.1289-3.2588-.2627-4.8965-.3437-4.0513-.2021-9.0928-.4521-13.68 1.4229-4.0264 1.6465-7.769 1.65-11.0708 1.6543a26.1806 26.1806 0 0 0 -6.02.4512 3 3 0 0 0 -2.215 3.6196z"/><path d="m163.9136 154.4707a75.0181 75.0181 0 0 0 18.583-.5752c.5088-.0791 1.0176-.1641 1.5269-.249a30.2606 30.2606 0 0 1 6.0273-.6123c3.457.1318 5.6094 1.2266 8.1016 2.4951a24.8714 24.8714 0 0 0 10.32 3.2207c.0728.0059.145.0078.2163.0078a3 3 0 0 0 .21-5.9922 19.0429 19.0429 0 0 1 -8.0259-2.584 23.48 23.48 0 0 0 -10.5937-3.1436 35.4736 35.4736 0 0 0 -7.2446.69c-.4883.0811-.9771.1631-1.4663.2393a68.7605 68.7605 0 0 1 -17.0957.5283 3 3 0 0 0 -.56 5.9746z"/><path d="m121.66 160.0791a3 3 0 0 0 .7236 5.957c7.1353-.8672 14.5562.07 21.7324.9766a3.1231 3.1231 0 0 0 .38.0234 3 3 0 0 0 .3721-5.9766c-7.5381-.9511-15.3349-1.9365-23.2081-.9804z"/><path d="m56.88 170.9443a23.4557 23.4557 0 0 0 4.7959.46c4.7529 0 9.8232-1.1475 14.7676-2.2666a73.4214 73.4214 0 0 1 11.0874-1.958 73.22 73.22 0 0 1 11.9751.6162l12.2471 1.3008a3 3 0 0 0 .6338-5.9668l-12.2476-1.3008a77.4906 77.4906 0 0 0 -12.9731-.6377 78.4978 78.4978 0 0 0 -12.0474 2.0947c-6.0283 1.3643-12.2622 2.7744-17.0151 1.7852a3 3 0 1 0 -1.2236 5.873z"/><path d="m95.07 111.8606c-1.095-.8286-2.2817-6.9736-4.0948-10.1465s-11.82-16.2717-11.82-16.2717l20.3975-3.1729c4.5328 4.08 14.0867 12.6455 18.1662 14.0054s10.5091 3.1179 10.5091 3.1179c.825 1.2865 3.641 4.4076 1.7578 7.7032l-2.0934 4.0783"/></g><ellipse cx="89.882" cy="84.082" fill="#cf976a" rx="11.03" ry="4.986"/><ellipse cx="44.173" cy="138.074" fill="#cf976a" rx="26.492" ry="38.528"/><ellipse cx="44.173" cy="138.074" fill="#cb8252" rx="16.406" ry="26.419"/><ellipse cx="44.173" cy="138.074" fill="#a56a43" rx="5.573" ry="12.6"/></svg>