<svg xmlns="http://www.w3.org/2000/svg" fill="none" viewBox="0 0 24 24" id="Hand-Shake-Heart--Streamline-Ultimate.svg"><desc>Hand Shake Heart Streamline Icon: https://streamlinehq.com</desc><path stroke="currentColor" stroke-linecap="round" stroke-linejoin="round" d="m10.6619 20.407 -8.08923 -7.3272C-2.55337 7.95377 4.98191 -1.88823 12.0046 6.07422c0.0005 0.00053 0.0005 0.00141 0 0.00195L9.19398 8.88706c-0.60954 0.6096 -0.61146 1.59734 -0.00431 2.20924 0.51055 0.5146 1.30763 0.6114 1.92643 0.2339l2.5969 -1.58434c0.7725 -0.47126 1.7652 -0.36515 2.4206 0.25874l2.681 2.552c0.8423 0.8018 0.8256 2.1503 -0.0363 2.931l-5.431 4.9194c-0.7621 0.6903 -1.9233 0.6903 -2.6854 0Z" stroke-width="1.5"></path><path stroke="currentColor" stroke-linecap="round" stroke-linejoin="round" d="m14.2441 13.4507 3.3038 3.1448" stroke-width="1.5"></path><path stroke="currentColor" stroke-linecap="round" stroke-linejoin="round" d="m11.4473 15.9976 3.3037 3.1447" stroke-width="1.5"></path><path stroke="currentColor" stroke-linecap="round" stroke-linejoin="round" d="m18.3038 15.9187 3.1362 -2.839c5.0919 -5.09182 -2.4093 -14.96799 -9.4319 -7.00554l-0.0011 0.00103 -2.81271 2.81213c-0.60963 0.60948 -0.61163 1.59718 -0.00449 2.20918v0c0.51047 0.5145 1.3074 0.6112 1.9262 0.2337l2.6021 -1.58741c0.7733 -0.47175 1.7671 -0.36488 2.4224 0.26051l2.6755 2.5533c0.8423 0.8018 0.8256 2.1503 -0.0362 2.931l-0.476 0.4311Z" stroke-width="1.5"></path></svg>