<svg xmlns="http://www.w3.org/2000/svg" viewBox="0 0 24 24" id="Arrow-Button-Right--Streamline-Ultimate.svg"><desc>Arrow Button Right Streamline Icon: https://streamlinehq.com</desc><path d="m7.21 23.75 12.47 -11a1.06 1.06 0 0 0 0 -1.54L7.21 0.25A1 1 0 0 0 6.48 0a1 1 0 0 0 -0.69 0.36L4.24 2.21A1 1 0 0 0 4 3a1 1 0 0 0 0.35 0.69l9.45 8.17a0.27 0.27 0 0 1 0 0.38l-9.45 8.12a1 1 0 0 0 -0.35 0.69 1 1 0 0 0 0.23 0.74l1.56 1.85a1 1 0 0 0 0.69 0.36 1 1 0 0 0 0.73 -0.25Z" fill="currentColor" stroke-width="1"></path></svg>
