<svg xmlns="http://www.w3.org/2000/svg" fill="none" viewBox="0 0 24 24" id="Hand-Shake-Heart--Streamline-Ultimate"><desc>Hand Shake Heart Streamline Icon: https://streamlinehq.com</desc><path fill="currentColor" fill-rule="evenodd" d="m11.2365 10.3691 2.4378 -1.45041c0.4833 -0.29484 1.1045 -0.22805 1.514 0.16281l5.0277 4.8595c0.3785 0.3658 0.9758 0.3756 1.3661 0.0223l0.3618 -0.3275c0.0092 -0.0083 0.0182 -0.0169 0.027 -0.0257 2.9002 -2.9002 2.1714 -7.12154 -0.1738 -9.45961 -1.1906 -1.18695 -2.8329 -1.93662 -4.689 -1.80499 -1.6694 0.1184 -3.4198 0.94234 -5.1007 2.6327 -0.0002 0.00019 -0.0005 0.00019 -0.0007 0.00001 -0.0002 -0.00019 -0.0005 -0.00019 -0.0007 0 -0.1951 0.19755 -0.378 0.39238 -0.5458 0.58207L9.23043 7.78961c-0.67166 0.67153 -0.63744 1.77052 0.07471 2.39899 0.53626 0.4732 1.31666 0.5461 1.93136 0.1805Zm7.745 5.9483c0.4289 -0.3882 0.4399 -1.0583 0.0239 -1.4604l-4.1669 -4.0275c-0.3244 -0.3135 -0.8186 -0.371 -1.2063 -0.1404l-1.6288 0.9691c-1.1746 0.6988 -2.66598 0.5594 -3.69077 -0.3449 -1.3609 -1.201 -1.4263 -3.30114 -0.14277 -4.58445L10.3681 4.531c0.2665 -0.29906 0.2366 -0.76677 -0.0986 -0.98604 -1.12861 -0.73827 -2.26545 -1.12429 -3.36713 -1.20412 -1.85794 -0.13462 -3.50368 0.61082 -4.6971 1.79583C-0.147257 6.47262 -0.872553 10.6944 2.0432 13.6102c0.00874 0.0087 0.01768 0.0172 0.02683 0.0255l8.08927 7.3272c0.6577 0.5958 1.5317 0.8176 2.3505 0.6654 0.6159 -0.1145 0.6804 -0.8695 0.2266 -1.3014l-2.79452 -2.6601c-0.30002 -0.2856 -0.31172 -0.7603 -0.02613 -1.0604 0.28555 -0.3 0.76035 -0.3117 1.06035 -0.0261l3.0887 2.9401c0.3792 0.361 0.9727 0.3683 1.3608 0.0168l0.2029 -0.1838c0.431 -0.3903 0.4393 -1.0646 0.0182 -1.4655l-2.9079 -2.768c-0.3001 -0.2856 -0.3118 -0.7603 -0.0262 -1.0603 0.2856 -0.3001 0.7603 -0.3118 1.0604 -0.0262l3.0959 2.947c0.3792 0.361 0.9727 0.3684 1.3608 0.0169l0.5521 -0.5001c0.0088 -0.0073 0.0174 -0.0147 0.0259 -0.0225l0.0002 -0.0001 0.0006 -0.0006 0.173 -0.1566Z" clip-rule="evenodd" stroke-width="1"></path></svg>
