<svg xmlns="http://www.w3.org/2000/svg" viewBox="0 0 24 24" id="Marine-Mammal-Turtle--Streamline-Ultimate"><desc>Marine Mammal Turtle Streamline Icon: https://streamlinehq.com</desc><path d="M23.6 13.42a8 8 0 0 0 -3 -1.45c1.35 -0.41 2.25 -1.16 2.25 -2.2 0 -1.68 -3.13 -6.09 -10.17 -6.09A7.11 7.11 0 0 0 6 8.39a4.61 4.61 0 0 0 -2.95 -1.16c-1.8 0 -3 1.89 -3 4.58a0.47 0.47 0 0 0 0.15 0.35 3.78 3.78 0 0 0 2.58 0.94 5.07 5.07 0 0 0 2.51 -0.71c0.52 -0.29 1 -0.68 1.39 -0.57a5.16 5.16 0 0 0 2.23 1.66 7 7 0 0 0 0.93 3.14A10.74 10.74 0 0 0 15 20.29a1 1 0 0 0 0.88 -0.18 1 1 0 0 0 0.39 -0.85 7.06 7.06 0 0 0 -2.49 -4.91 11 11 0 0 0 3.1 -0.5 5.67 5.67 0 0 0 2.29 2c0.92 0.31 2.33 0.08 4.2 -0.7a1 1 0 0 0 0.21 -1.73Zm-5.67 -3.21a0.25 0.25 0 0 1 -0.17 0L17 9.79a0.26 0.26 0 0 1 -0.12 -0.17 0.21 0.21 0 0 1 0 -0.2l1.46 -2a0.24 0.24 0 0 1 0.34 -0.06 6.62 6.62 0 0 1 1.83 1.82 0.22 0.22 0 0 1 0 0.21 0.26 0.26 0 0 1 -0.15 0.16 17.39 17.39 0 0 1 -2.43 0.66Zm-6.17 -1.34a0.24 0.24 0 0 1 0.32 -0.08l2.49 1.36a0.23 0.23 0 0 1 0.12 0.27 0.26 0.26 0 0 1 -0.23 0.2 26.7 26.7 0 0 1 -3.41 -0.07 0.24 0.24 0 0 1 -0.21 -0.14 0.25 0.25 0 0 1 0 -0.25Zm3.83 -0.12a0.25 0.25 0 0 1 -0.32 0.07L13 7.58a0.33 0.33 0 0 1 -0.13 -0.16 0.27 0.27 0 0 1 0 -0.2l0.95 -1.37a0.26 0.26 0 0 1 0.23 -0.11 11.28 11.28 0 0 1 2.83 0.63 0.26 0.26 0 0 1 0.15 0.16 0.24 0.24 0 0 1 0 0.22ZM9 10.16a0.28 0.28 0 0 1 -0.25 0.11l-0.94 -0.2a0.24 0.24 0 0 1 -0.19 -0.28 5.06 5.06 0 0 1 3.87 -4 0.25 0.25 0 0 1 0.26 0.1 0.24 0.24 0 0 1 0 0.28Zm-5.74 0.89a1 1 0 0 1 0 -2 1 1 0 0 1 0 2Z" fill="currentColor" stroke-width="1"></path></svg>
