<svg xmlns="http://www.w3.org/2000/svg" viewBox="0 0 24 24" id="Trip-Multiple-Destination--Streamline-Ultimate"><desc>Trip Multiple Destination Streamline Icon: https://streamlinehq.com</desc><g><path d="m16.35 17.17 -9.27 5A1 1 0 0 0 7.55 24a0.93 0.93 0 0 0 0.45 -0.12l9.27 -5a1 1 0 0 0 0.41 -1.34 1 1 0 0 0 -1.33 -0.37Z" fill="currentColor" stroke-width="1"></path><path d="M12 11.84a1 1 0 0 0 0.09 1.39l2.49 2.18a1 1 0 0 0 0.65 0.25 1 1 0 0 0 0.65 -1.74l-2.49 -2.18a1 1 0 0 0 -1.39 0.1Z" fill="currentColor" stroke-width="1"></path><path d="M19.92 6.43a4 4 0 0 0 -4 4c0 2.65 3.46 6.14 3.61 6.29a0.46 0.46 0 0 0 0.35 0.14 0.49 0.49 0 0 0 0.35 -0.14c0.14 -0.15 3.61 -3.64 3.61 -6.29a4 4 0 0 0 -3.92 -4Zm0 5.45a1.49 1.49 0 1 1 0 -3 1.49 1.49 0 0 1 0 3Z" fill="currentColor" stroke-width="1"></path><path d="M11 10.39a0.52 0.52 0 0 0 0.35 -0.14C11.51 10.1 15 6.61 15 4a4 4 0 0 0 -7.95 0c0 2.65 3.46 6.14 3.61 6.29a0.52 0.52 0 0 0 0.34 0.1ZM9.53 4A1.48 1.48 0 1 1 11 5.44 1.49 1.49 0 0 1 9.53 4Z" fill="currentColor" stroke-width="1"></path><path d="M9 14.35a4.46 4.46 0 0 0 -8.91 0c0 1.89 1.06 3.34 2.08 4.75s1.88 2.59 1.88 4.16a0.5 0.5 0 0 0 1 0c0 -1.57 0.92 -2.83 1.89 -4.16S9 16.24 9 14.35Zm-4.42 1.49a2 2 0 1 1 2 -2 2 2 0 0 1 -2 2Z" fill="currentColor" stroke-width="1"></path></g></svg>
