<svg xmlns="http://www.w3.org/2000/svg" viewBox="0 0 24 24" id="Vegetables-Salad--Streamline-Ultimate"><desc>Vegetables Salad Streamline Icon: https://streamlinehq.com</desc><g><path d="M23.35 14.48a0.52 0.52 0 0 0 -0.37 -0.16H1a0.52 0.52 0 0 0 -0.37 0.16 0.52 0.52 0 0 0 -0.13 0.38c0.36 4.72 5.24 8.46 11.5 8.46s11.14 -3.74 11.48 -8.46a0.52 0.52 0 0 0 -0.13 -0.38Z" fill="currentColor" stroke-width="1"></path><path d="M11.45 8.51a0.53 0.53 0 0 0 0.25 0.3 4.19 4.19 0 0 1 2.22 3.53 0.5 0.5 0 0 0 0.49 0.47h0.37a0.51 0.51 0 0 0 0.5 -0.49A13.82 13.82 0 0 1 17 5.74l0.19 -0.38a0.75 0.75 0 0 1 1.3 0.64c-0.06 0.13 -0.13 0.26 -0.21 0.41a12.38 12.38 0 0 0 -1.5 5.87 0.43 0.43 0 0 0 0.14 0.36 0.48 0.48 0 0 0 0.36 0.16h4.57a0.53 0.53 0 0 0 0.38 -0.18A2.65 2.65 0 0 0 22.34 9a0.24 0.24 0 0 1 0 -0.31 2.55 2.55 0 0 0 -0.57 -3.61 0.23 0.23 0 0 1 -0.09 -0.28 3.12 3.12 0 0 0 -2.13 -4 3.58 3.58 0 0 0 -4.25 2.25 0.27 0.27 0 0 1 -0.23 0.17 2.82 2.82 0 0 0 -2.71 3 0.24 0.24 0 0 1 -0.07 0.18 0.26 0.26 0 0 1 -0.17 0.09 3.41 3.41 0 0 0 -1.23 0.27 0.24 0.24 0 0 0 -0.14 0.17 0.23 0.23 0 0 0 0 0.21 4 4 0 0 1 0.7 1.37Z" fill="currentColor" stroke-width="1"></path><path d="M1.84 11.94a0.39 0.39 0 0 1 0 0.44 0.25 0.25 0 0 0 0.2 0.4h3.55a0.49 0.49 0 0 0 0.41 -0.17 0.5 0.5 0 0 0 0.12 -0.41 4.79 4.79 0 0 0 -0.71 -1.81 0.75 0.75 0 0 1 0.2 -1 0.74 0.74 0 0 1 1 0.21 6.07 6.07 0 0 1 1 2.77 0.49 0.49 0 0 0 0.49 0.45h3.8a0.5 0.5 0 0 0 0.5 -0.57 2.7 2.7 0 0 0 -2.09 -2.34 0.25 0.25 0 0 1 -0.19 -0.24A2.47 2.47 0 0 0 8 7.17 0.25 0.25 0 0 1 7.74 7a2.88 2.88 0 0 0 -3.45 -2.08 2.88 2.88 0 0 0 -1.8 3.59 0.24 0.24 0 0 1 -0.09 0.26 2.42 2.42 0 0 0 -0.79 2.62 2.06 2.06 0 0 0 0.23 0.55Z" fill="currentColor" stroke-width="1"></path></g></svg>
